<?xml version="1.0" encoding="UTF-8"?>
<svg version="1.1" xmlns="http://www.w3.org/2000/svg" width="1024" height="1024">
<path d="M0 0 C337.92 0 675.84 0 1024 0 C1024 337.92 1024 675.84 1024 1024 C686.08 1024 348.16 1024 0 1024 C0 686.08 0 348.16 0 0 Z " fill="#F9FAFB" transform="translate(0,0)"/>
<path d="M0 0 C2.21945348 0.99676323 4.44678864 1.97321547 6.67626953 2.94726562 C25.7817125 11.4540854 43.69741555 22.57976482 60.42236328 35.08789062 C61.28861328 35.72887695 61.28861328 35.72887695 62.17236328 36.3828125 C73.61750648 44.87394304 84.60420172 53.97643462 94.53955078 64.20507812 C96.14792465 65.813452 97.76617599 67.24222685 99.54736328 68.65039062 C102.54798068 71.19439234 104.98634912 73.89478573 107.52783203 76.88476562 C109.47943323 79.1542565 111.5087332 81.33395646 113.54736328 83.52539062 C119.98245416 90.67063584 125.70376568 98.36668446 131.42236328 106.08789062 C131.94266113 106.78865723 132.46295898 107.48942383 132.99902344 108.21142578 C140.99155625 119.04845708 147.90008072 130.31553589 154.42236328 142.08789062 C154.8098877 142.77254395 155.19741211 143.45719727 155.59667969 144.16259766 C176.32755068 180.81679045 187.21553148 221.54473877 192.42236328 263.08789062 C192.52911377 263.91281006 192.63586426 264.73772949 192.74584961 265.58764648 C193.83582836 275.43433787 193.6219365 285.38226538 193.60986328 295.27539062 C193.6089267 296.26064728 193.60799011 297.24590393 193.60702515 298.26101685 C193.50662168 346.92900011 184.68692083 395.00746537 163.42236328 439.08789062 C163.09381348 439.76996582 162.76526367 440.45204102 162.42675781 441.15478516 C160.4691528 445.1894196 158.45898591 449.19439341 156.40478516 453.18066406 C155.76159168 454.42932894 155.12211822 455.67991873 154.48681641 456.93261719 C136.75614923 491.85041099 110.61290077 524.97844033 80.42236328 550.08789062 C79.61702148 550.76392334 79.61702148 550.76392334 78.79541016 551.45361328 C29.90676297 592.38151551 -29.37915812 618.50824709 -92.57763672 627.08789062 C-93.86637695 627.26666748 -95.15511719 627.44544434 -96.48291016 627.62963867 C-109.01053626 629.25674426 -121.45800317 629.44663858 -134.07763672 629.40039062 C-135.13689362 629.39823547 -136.19615051 629.39608032 -137.2875061 629.39385986 C-153.24000756 629.34181746 -168.8367036 628.90410322 -184.57763672 626.08789062 C-185.71539551 625.88921387 -186.8531543 625.69053711 -188.02539062 625.48583984 C-215.75854207 620.51153416 -243.98603192 612.67137868 -269.37841797 600.23242188 C-276.6642854 597.62587834 -282.72341768 601.33223886 -289.26513672 604.40039062 C-322.25193527 619.23438473 -357.75762627 628.56402226 -393.57763672 633.08789062 C-394.21855255 633.17369385 -394.85946838 633.25949707 -395.51980591 633.34790039 C-407.15254328 634.89283182 -418.65324982 635.4605902 -430.38549805 635.45849609 C-433.16953815 635.46293753 -435.9520708 635.49963228 -438.73583984 635.53710938 C-440.53856893 635.5429684 -442.34130535 635.5469439 -444.14404297 635.54882812 C-444.95982315 635.56319916 -445.77560333 635.57757019 -446.61610413 635.59237671 C-454.79306014 635.52804305 -462.05793594 632.49284483 -468.06982422 626.90039062 C-473.06299124 620.89824166 -474.35369497 613.64187594 -473.99560547 606.00585938 C-472.64366323 596.56753363 -466.22469896 590.00188771 -460.29248047 582.95581055 C-439.0255071 557.68205591 -415.56692275 525.16317335 -408.57763672 492.08789062 C-409.09084678 489.18533322 -410.03910119 487.07138457 -411.62451172 484.60351562 C-412.05062744 483.92844971 -412.47674316 483.25338379 -412.91577148 482.55786133 C-413.38168701 481.825271 -413.84760254 481.09268066 -414.32763672 480.33789062 C-425.70497703 462.02208942 -435.55768424 443.1079383 -443.57763672 423.08789062 C-444.1086499 421.76337891 -444.1086499 421.76337891 -444.65039062 420.41210938 C-460.11046269 381.23595305 -467.03039442 340.2587868 -466.95263672 298.27539062 C-466.95242523 297.21161194 -466.95221375 296.14783325 -466.95199585 295.05181885 C-466.91593417 276.77111087 -465.81196334 259.1062029 -462.57763672 241.08789062 C-462.39040039 240.04149414 -462.20316406 238.99509766 -462.01025391 237.91699219 C-454.49481252 197.5101372 -439.40288828 157.38438014 -416.57763672 123.08789062 C-416.12291992 122.39953125 -415.66820312 121.71117187 -415.19970703 121.00195312 C-398.03938064 95.15939022 -377.52941576 69.95517755 -353.57763672 50.08789062 C-353.036875 49.63333496 -352.49611328 49.1787793 -351.93896484 48.71044922 C-336.7382443 35.95873365 -320.61575289 25.2183394 -303.57763672 15.08789062 C-302.96710449 14.72066895 -302.35657227 14.35344727 -301.72753906 13.97509766 C-218.51249486 -35.97269741 -108.60782547 -42.57613927 0 0 Z " fill="#F9FAFB" transform="translate(650.57763671875,198.912109375)"/>
<path d="M0 0 C2.21945348 0.99676323 4.44678864 1.97321547 6.67626953 2.94726562 C25.7817125 11.4540854 43.69741555 22.57976482 60.42236328 35.08789062 C61.28861328 35.72887695 61.28861328 35.72887695 62.17236328 36.3828125 C73.61750648 44.87394304 84.60420172 53.97643462 94.53955078 64.20507812 C96.14792465 65.813452 97.76617599 67.24222685 99.54736328 68.65039062 C102.54798068 71.19439234 104.98634912 73.89478573 107.52783203 76.88476562 C109.47943323 79.1542565 111.5087332 81.33395646 113.54736328 83.52539062 C119.98245416 90.67063584 125.70376568 98.36668446 131.42236328 106.08789062 C131.94266113 106.78865723 132.46295898 107.48942383 132.99902344 108.21142578 C140.99155625 119.04845708 147.90008072 130.31553589 154.42236328 142.08789062 C154.8098877 142.77254395 155.19741211 143.45719727 155.59667969 144.16259766 C176.32755068 180.81679045 187.21553148 221.54473877 192.42236328 263.08789062 C192.52911377 263.91281006 192.63586426 264.73772949 192.74584961 265.58764648 C193.83582836 275.43433787 193.6219365 285.38226538 193.60986328 295.27539062 C193.6089267 296.26064728 193.60799011 297.24590393 193.60702515 298.26101685 C193.50662168 346.92900011 184.68692083 395.00746537 163.42236328 439.08789062 C163.09381348 439.76996582 162.76526367 440.45204102 162.42675781 441.15478516 C160.4691528 445.1894196 158.45898591 449.19439341 156.40478516 453.18066406 C155.76159168 454.42932894 155.12211822 455.67991873 154.48681641 456.93261719 C136.75614923 491.85041099 110.61290077 524.97844033 80.42236328 550.08789062 C79.61702148 550.76392334 79.61702148 550.76392334 78.79541016 551.45361328 C29.90676297 592.38151551 -29.37915812 618.50824709 -92.57763672 627.08789062 C-93.86637695 627.26666748 -95.15511719 627.44544434 -96.48291016 627.62963867 C-109.01053626 629.25674426 -121.45800317 629.44663858 -134.07763672 629.40039062 C-135.13689362 629.39823547 -136.19615051 629.39608032 -137.2875061 629.39385986 C-153.24000756 629.34181746 -168.8367036 628.90410322 -184.57763672 626.08789062 C-185.71539551 625.88921387 -186.8531543 625.69053711 -188.02539062 625.48583984 C-215.75854207 620.51153416 -243.98603192 612.67137868 -269.37841797 600.23242188 C-276.6642854 597.62587834 -282.72341768 601.33223886 -289.26513672 604.40039062 C-322.25193527 619.23438473 -357.75762627 628.56402226 -393.57763672 633.08789062 C-394.21855255 633.17369385 -394.85946838 633.25949707 -395.51980591 633.34790039 C-407.15254328 634.89283182 -418.65324982 635.4605902 -430.38549805 635.45849609 C-433.16953815 635.46293753 -435.9520708 635.49963228 -438.73583984 635.53710938 C-440.53856893 635.5429684 -442.34130535 635.5469439 -444.14404297 635.54882812 C-444.95982315 635.56319916 -445.77560333 635.57757019 -446.61610413 635.59237671 C-454.79306014 635.52804305 -462.05793594 632.49284483 -468.06982422 626.90039062 C-473.06299124 620.89824166 -474.35369497 613.64187594 -473.99560547 606.00585938 C-472.64366323 596.56753363 -466.22469896 590.00188771 -460.29248047 582.95581055 C-439.0255071 557.68205591 -415.56692275 525.16317335 -408.57763672 492.08789062 C-409.09084678 489.18533322 -410.03910119 487.07138457 -411.62451172 484.60351562 C-412.05062744 483.92844971 -412.47674316 483.25338379 -412.91577148 482.55786133 C-413.38168701 481.825271 -413.84760254 481.09268066 -414.32763672 480.33789062 C-425.70497703 462.02208942 -435.55768424 443.1079383 -443.57763672 423.08789062 C-444.1086499 421.76337891 -444.1086499 421.76337891 -444.65039062 420.41210938 C-460.11046269 381.23595305 -467.03039442 340.2587868 -466.95263672 298.27539062 C-466.95242523 297.21161194 -466.95221375 296.14783325 -466.95199585 295.05181885 C-466.91593417 276.77111087 -465.81196334 259.1062029 -462.57763672 241.08789062 C-462.39040039 240.04149414 -462.20316406 238.99509766 -462.01025391 237.91699219 C-454.49481252 197.5101372 -439.40288828 157.38438014 -416.57763672 123.08789062 C-416.12291992 122.39953125 -415.66820312 121.71117187 -415.19970703 121.00195312 C-398.03938064 95.15939022 -377.52941576 69.95517755 -353.57763672 50.08789062 C-353.036875 49.63333496 -352.49611328 49.1787793 -351.93896484 48.71044922 C-336.7382443 35.95873365 -320.61575289 25.2183394 -303.57763672 15.08789062 C-302.96710449 14.72066895 -302.35657227 14.35344727 -301.72753906 13.97509766 C-218.51249486 -35.97269741 -108.60782547 -42.57613927 0 0 Z M-191.57763672 27.08789062 C-192.27066895 27.22420898 -192.96370117 27.36052734 -193.67773438 27.50097656 C-242.16046669 37.08902091 -289.5025274 60.01312198 -325.57763672 94.08789062 C-326.8649159 95.19716928 -328.15651956 96.30145154 -329.45263672 97.40039062 C-338.74103181 105.52539077 -346.96673995 114.3846511 -354.57763672 124.08789062 C-355.45921452 125.18003426 -356.34208353 126.27113658 -357.22607422 127.36132812 C-403.91155871 185.28591073 -422.83477139 258.92458807 -414.99047852 332.39355469 C-413.59350727 344.13530515 -411.36820474 355.60417083 -408.57763672 367.08789062 C-408.36800293 367.98314453 -408.15836914 368.87839844 -407.94238281 369.80078125 C-399.96843858 403.46445345 -384.69944253 434.57493029 -364.96435547 462.83789062 C-364.55088867 463.43053711 -364.13742187 464.02318359 -363.71142578 464.63378906 C-362.60222961 466.21382769 -361.4791763 467.78411385 -360.35498047 469.35351562 C-355.60589498 476.659801 -355.51936277 484.00084108 -357.26806641 492.40673828 C-358.23498282 495.94173984 -359.31186304 499.41763282 -360.45263672 502.90039062 C-360.65359955 503.52762024 -360.85456238 504.15484985 -361.06161499 504.80108643 C-369.49189158 531.08364026 -381.61360898 556.19411111 -397.37451172 578.86132812 C-399.67161924 581.57436894 -399.67161924 581.57436894 -399.57763672 583.08789062 C-358.19870771 582.9513265 -315.81898165 563.20856309 -279.57763672 545.08789062 C-269.29766425 542.85546228 -261.99738334 546.91892587 -253.0715332 551.46069336 C-241.00362848 557.53856235 -228.39612594 561.87486121 -215.57763672 566.08789062 C-214.64741699 566.39597656 -213.71719727 566.7040625 -212.75878906 567.02148438 C-191.52613781 573.92537697 -168.60485528 578.11273032 -146.24951172 578.32617188 C-144.96090744 578.34086266 -144.96090744 578.34086266 -143.64627075 578.35585022 C-71.6655706 579.00627579 -1.23709509 557.06462671 51.64111328 506.71679688 C53.87120883 504.60885544 56.13029448 502.61413961 58.48486328 500.65039062 C109.0466999 456.64678386 138.38966593 384.2917675 143.14111328 318.56445312 C145.87183338 271.10943907 137.62780545 222.84670536 116.42236328 180.08789062 C115.99761719 179.21680664 115.57287109 178.34572266 115.13525391 177.44824219 C103.33657902 153.40989821 88.59969263 131.74155129 70.42236328 112.08789062 C69.54708984 111.10949219 68.67181641 110.13109375 67.77001953 109.12304688 C62.00112318 102.68474662 55.98127425 96.72933488 49.42236328 91.08789062 C48.49423828 90.2603125 47.56611328 89.43273437 46.60986328 88.58007812 C6.41954342 53.13035643 -45.82238134 31.56180637 -98.57763672 24.08789062 C-99.38797363 23.97219727 -100.19831055 23.85650391 -101.03320312 23.73730469 C-130.76567788 19.72535514 -162.23273356 21.0608936 -191.57763672 27.08789062 Z " fill="#F75067" transform="translate(650.57763671875,198.912109375)"/>
<path d="M0 0 C5.68213432 4.85275446 6.55821476 10.97574902 8.02514648 18.07415771 C8.72684101 21.45768385 9.49137364 24.82720265 10.24609375 28.19921875 C10.39468842 28.87027649 10.54328308 29.54133423 10.69638062 30.23272705 C19.18684482 68.40916133 36.69490015 99.95101267 70.18920898 121.44555664 C90.573801 134.01930728 113.22432099 139.8926946 136.33203125 145.24609375 C137.07735107 145.42164795 137.8226709 145.59720215 138.59057617 145.77807617 C140.44442782 146.2081128 142.30401513 146.61323065 144.1640625 147.015625 C147.40205263 148.13955546 148.90587816 149.30612966 151 152 C151.5625 155.4375 151.5625 155.4375 151 159 C147.30736268 163.6983484 143.60689277 165.06896716 137.9375 166.2109375 C137.15777328 166.38439697 136.37804657 166.55785645 135.57469177 166.73657227 C133.91223465 167.10569779 132.24809271 167.46730337 130.58248901 167.82196045 C126.24353899 168.7511458 121.92120421 169.75198858 117.59765625 170.75 C116.75203629 170.94427582 115.90641632 171.13855164 115.03517151 171.3387146 C82.46886962 178.8820692 51.81958951 194.87971277 33.1171875 223.515625 C32.40561175 224.6735106 31.70007566 225.83512525 31 227 C30.62391602 227.62326172 30.24783203 228.24652344 29.86035156 228.88867188 C16.60129498 251.3168162 9.80295248 278.51090669 5.80078125 304.08203125 C4.81526094 307.67317113 3.31079193 310.0924651 1 313 C-2.4375 314.125 -2.4375 314.125 -6 314 C-9.0925589 312.0619346 -10.70593116 310.70741035 -12.1171875 307.3125 C-12.36726562 306.219375 -12.61734375 305.12625 -12.875 304 C-13.02735107 303.3711792 -13.17970215 302.7423584 -13.33666992 302.09448242 C-13.69464017 300.61351522 -14.04410856 299.13047916 -14.38720703 297.64599609 C-21.72821757 265.94803903 -29.24105546 237.38271662 -52.1171875 213.19140625 C-54 211 -54 211 -55.0078125 208.83984375 C-56.29055211 206.46122031 -57.57783352 206.11240239 -60 205 C-61.27918975 203.86541431 -62.52635391 202.69427859 -63.75 201.5 C-85.85204941 181.50290767 -116.02065204 172.47239189 -144.62109375 166.875 C-145.48951904 166.70371582 -146.35794434 166.53243164 -147.25268555 166.35595703 C-148.8697268 166.04453155 -150.4896669 165.74765836 -152.11254883 165.46826172 C-156.58228677 164.62197402 -159.26005987 163.71552487 -162 160 C-163.11341628 156.17263154 -163.53350575 154.07361839 -161.73828125 150.4609375 C-157.48854235 146.64162865 -152.69240661 146.15276135 -147.1875 145.0625 C-144.825011 144.5531402 -142.46303971 144.04137393 -140.1015625 143.52734375 C-138.91079102 143.2732373 -137.72001953 143.01913086 -136.49316406 142.75732422 C-97.39578395 134.28094226 -61.98578886 117.23804308 -39.31591797 83.046875 C-25.95499887 62.26432477 -18.83721306 38.20017109 -13.88769531 14.15991211 C-13.67854492 13.15710205 -13.46939453 12.15429199 -13.25390625 11.12109375 C-13.08189697 10.2489624 -12.9098877 9.37683105 -12.73266602 8.47827148 C-11.88776976 5.62037682 -10.6890627 3.44894095 -9 1 C-5.82121306 -0.58939347 -3.5043228 -0.41576711 0 0 Z " fill="#F75067" transform="translate(591,315)"/>
<path d="M0 0 C0.33 0 0.66 0 1 0 C1.08159574 4.16138263 0.98248524 7.9472484 0 12 C-0.66 12 -1.32 12 -2 12 C-1.85904936 10.3745692 -1.71207913 8.74965949 -1.5625 7.125 C-1.48128906 6.22007812 -1.40007812 5.31515625 -1.31640625 4.3828125 C-1 2 -1 2 0 0 Z " fill="#F73F58" transform="translate(194,415)"/>
<path d="M0 0 C0 3.58912412 -0.66436554 4.10857029 -3 6.6875 C-3.556875 7.31011719 -4.11375 7.93273437 -4.6875 8.57421875 C-5.120625 9.04472656 -5.55375 9.51523437 -6 10 C-6.66 9.67 -7.32 9.34 -8 9 C-6.85459775 7.68712379 -5.70866567 6.37470979 -4.5625 5.0625 C-3.92441406 4.33160156 -3.28632812 3.60070312 -2.62890625 2.84765625 C-1.77458541 1.87860647 -0.91348825 0.91348825 0 0 Z " fill="#F73F59" transform="translate(723,684)"/>
</svg>
